# xmcd
#
# Track frame offsets:
#	150
#	20757
#	38152
#	54967
#	71405
#	87222
#	103130
#	118236
#	131885
#	148458
#	169140
#	184796
#	198225
#	214813
#	230227
#	247927
#	261851
#	278745
#	292790
#
# Disc length: 4150 seconds
#
# Revision: 1
# Processed by: cddbd v1.5.2PL0 Copyright (c) Steve Scherf et al.
# Submitted via: audiograbber 1.83.01
#
DISCID=25103413
DTITLE=Various Artist - Hott Country 200
DYEAR=2012
DGENRE=Country
TTITLE0=Brad Paisley - Southern Comfort  Zone
TTITLE1=Gloriana - Can't Shake You
TTITLE2=Gary Allan - Every Storm ( Runs Out Of Rain )
TTITLE3=Tyler Farr - Hello Goodbye
TTITLE4=Jason Blaine - OnA Night Like This
TTITLE5=J T Hodges - Sleepy Little Town
TTITLE6=Faith Hill - American Heart
TTITLE7=Terri Clark - Love Is A Rose
TTITLE8=Little Big Town - Tornado
TTITLE9=Zac Brown Band - Goodbye In Her Eyes
TTITLE10=Craig Morgan - More Trucks Than Cars
TTITLE11=High Valley - Love You For A Long Time
TTITLE12=Dwight Yoakam - Take Hold Of My Hand
TTITLE13=Kacey Musgraves - Merry Go Round
TTITLE14=Haley - That's When You Know
TTITLE15=Joanna Smith - We Can't Be Friends
TTITLE16=Back - Colt Ford and Jake Owens
TTITLE17=Orchard - Gotta Let You Go
TTITLE18=Johnnie reid Feat Carolyn Dawn Johnson - Dancin' Shoes
EXTD=October 2012
EXTT0=
EXTT1=
EXTT2=
EXTT3=
EXTT4=
EXTT5=
EXTT6=
EXTT7=
EXTT8=
EXTT9=
EXTT10=
EXTT11=
EXTT12=
EXTT13=
EXTT14=
EXTT15=
EXTT16=
EXTT17=
EXTT18=
PLAYORDER=
